<?xml version="1.0" standalone="no"?>
<!DOCTYPE svg PUBLIC "-//W3C//DTD SVG 20010904//EN"
 "http://www.w3.org/TR/2001/REC-SVG-20010904/DTD/svg10.dtd">
<svg version="1.0" xmlns="http://www.w3.org/2000/svg"
 width="260.000000pt" height="260.000000pt" viewBox="0 0 260.000000 260.000000"
 preserveAspectRatio="xMidYMid meet">
<metadata>
Created by potrace 1.11, written by Peter Selinger 2001-2013
</metadata>
<g transform="translate(0.000000,260.000000) scale(0.100000,-0.100000)"
fill="#000000" stroke="none">
<path d="M195 2174 c-46 -24 -63 -43 -80 -88 -14 -36 -15 -123 -13 -709 l3
-667 -41 0 c-22 0 -45 -5 -52 -12 -8 -8 -12 -45 -12 -103 0 -72 4 -97 20 -122
41 -67 -46 -63 1280 -63 1326 0 1239 -4 1280 63 16 25 20 50 20 122 0 58 -4
95 -12 103 -7 7 -30 12 -52 12 l-41 0 3 667 c3 747 4 727 -66 781 l-35 27
-1086 3 c-971 2 -1089 0 -1116 -14z m2170 -80 c45 -17 45 -25 45 -724 l0 -660
-1110 0 -1110 0 0 660 c0 564 2 665 15 690 8 15 20 30 27 33 19 8 2113 8 2133
1z m-1247 -1506 c2 -15 15 -37 29 -48 23 -18 40 -20 153 -20 113 0 130 2 153
20 14 11 27 33 29 48 l3 27 513 3 512 2 0 -48 c0 -26 -5 -53 -12 -60 -17 -17
-2379 -17 -2396 0 -7 7 -12 34 -12 60 l0 48 513 -2 512 -3 3 -27z"/>
<path d="M247 2042 c-15 -17 -17 -76 -17 -639 l0 -620 23 -21 23 -22 1025 0
1026 0 21 23 22 23 0 621 c0 588 -1 621 -18 636 -17 16 -105 17 -1054 17 -990
0 -1036 -1 -1051 -18z m2063 -637 l0 -595 -1010 0 -1010 0 0 595 0 595 1010 0
1010 0 0 -595z"/>
<path d="M947 1705 c-148 -55 -224 -247 -156 -395 35 -75 70 -114 131 -144 91
-45 202 -31 276 37 l22 20 0 -41 c0 -38 2 -42 25 -42 l25 0 0 140 0 140 -90 0
c-83 0 -90 -1 -90 -20 0 -18 7 -20 65 -20 l65 0 0 -48 c0 -41 -5 -53 -32 -80
-42 -40 -96 -62 -152 -62 -57 0 -85 11 -130 51 -59 52 -81 102 -81 189 0 58 5
84 22 116 46 86 130 133 216 120 51 -8 122 -54 132 -85 6 -19 8 -20 30 -5 29
19 24 33 -27 82 -56 56 -169 77 -251 47z"/>
<path d="M1539 1706 c-98 -35 -158 -101 -185 -205 -44 -175 84 -361 250 -361
78 0 128 16 176 57 56 49 66 69 39 84 -19 10 -25 7 -46 -20 -49 -62 -153 -89
-230 -60 -38 14 -90 65 -116 114 -30 57 -30 173 0 231 70 133 224 163 324 63
33 -33 43 -38 59 -29 24 13 17 31 -32 78 -55 54 -162 76 -239 48z"/>
</g>
</svg>
